<svg xmlns="http://www.w3.org/2000/svg" viewBox="0 0 900 560" font-family="system-ui,Segoe UI,Helvetica,Arial,sans-serif"><rect width="900" height="560" fill="#0d1117"/><text x="450" y="34" fill="#e6edf3" font-size="18" text-anchor="middle">Every metric vs the no-skill baseline</text><text x="450" y="56" fill="#8b949e" font-size="12" text-anchor="middle">LAYOUT DEMO with placeholder numbers — replace with your real run</text><rect x="70" y="66" width="10" height="10" fill="#9aa0a6"/><text x="85" y="75" fill="#c9d1d9" font-size="11">baseline</text><rect x="158.2" y="66" width="10" height="10" fill="#e8833a"/><text x="173.2" y="75" fill="#c9d1d9" font-size="11">caveman</text><rect x="240" y="66" width="10" height="10" fill="#34a853"/><text x="255" y="75" fill="#c9d1d9" font-size="11">minimalist</text><rect x="341" y="66" width="10" height="10" fill="#8e5cf7"/><text x="356" y="75" fill="#c9d1d9" font-size="11">ponytail</text><rect x="429.2" y="66" width="10" height="10" fill="#e84393"/><text x="444.2" y="75" fill="#c9d1d9" font-size="11">yagni-oneliner</text><line x1="70" y1="420" x2="860" y2="420" stroke="#21262d" stroke-dasharray="none" stroke-width="1"/><text x="62" y="424" fill="#8b949e" font-size="10" text-anchor="end">0%</text><line x1="70" y1="354.7826086956522" x2="860" y2="354.7826086956522" stroke="#21262d" stroke-dasharray="none" stroke-width="1"/><text x="62" y="358.7826086956522" fill="#8b949e" font-size="10" text-anchor="end">25%</text><line x1="70" y1="289.5652173913044" x2="860" y2="289.5652173913044" stroke="#21262d" stroke-dasharray="none" stroke-width="1"/><text x="62" y="293.5652173913044" fill="#8b949e" font-size="10" text-anchor="end">50%</text><line x1="70" y1="224.3478260869565" x2="860" y2="224.3478260869565" stroke="#21262d" stroke-dasharray="none" stroke-width="1"/><text x="62" y="228.3478260869565" fill="#8b949e" font-size="10" text-anchor="end">75%</text><line x1="70" y1="159.1304347826087" x2="860" y2="159.1304347826087" stroke="#21262d" stroke-dasharray="4 4" stroke-width="1"/><text x="62" y="163.1304347826087" fill="#8b949e" font-size="10" text-anchor="end">100%</text><text x="18" y="255" fill="#8b949e" font-size="10" transform="rotate(-90 18 255)" text-anchor="middle">% of baseline (lower is leaner)</text><rect x="70" y="159.1304347826087" width="33.5" height="260.8695652173913" rx="2" fill="#9aa0a6"/><text x="86.75" y="154.1304347826087" fill="#9aa0a6" font-size="10" text-anchor="middle">100%</text><rect x="109.5" y="211.3043478260869" width="33.5" height="208.6956521739131" rx="2" fill="#e8833a"/><text x="126.25" y="206.3043478260869" fill="#e8833a" font-size="10" text-anchor="middle">80%</text><rect x="149" y="310.4347826086956" width="33.5" height="109.56521739130437" rx="2" fill="#34a853"/><text x="165.75" y="305.4347826086956" fill="#34a853" font-size="10" text-anchor="middle">42%</text><rect x="188.5" y="300" width="33.5" height="120" rx="2" fill="#8e5cf7"/><text x="205.25" y="295" fill="#8e5cf7" font-size="10" text-anchor="middle">46%</text><rect x="228" y="245.2173913043478" width="33.5" height="174.7826086956522" rx="2" fill="#e84393"/><text x="244.75" y="240.2173913043478" fill="#e84393" font-size="10" text-anchor="middle">67%</text><text x="168.75" y="442" fill="#c9d1d9" font-size="12" text-anchor="middle">LOC</text><text x="168.75" y="458" fill="#6e7681" font-size="10" text-anchor="middle">base 191</text><rect x="267.5" y="159.1304347826087" width="33.5" height="260.8695652173913" rx="2" fill="#9aa0a6"/><text x="284.25" y="154.1304347826087" fill="#9aa0a6" font-size="10" text-anchor="middle">100%</text><rect x="307" y="140.86956521739125" width="33.5" height="279.13043478260875" rx="2" fill="#e8833a"/><text x="323.75" y="135.86956521739125" fill="#e8833a" font-size="10" text-anchor="middle">107%</text><rect x="346.5" y="226.9565217391304" width="33.5" height="193.0434782608696" rx="2" fill="#34a853"/><text x="363.25" y="221.9565217391304" fill="#34a853" font-size="10" text-anchor="middle">74%</text><rect x="386" y="216.52173913043475" width="33.5" height="203.47826086956525" rx="2" fill="#8e5cf7"/><text x="402.75" y="211.52173913043475" fill="#8e5cf7" font-size="10" text-anchor="middle">78%</text><rect x="425.5" y="195.65217391304344" width="33.5" height="224.34782608695656" rx="2" fill="#e84393"/><text x="442.25" y="190.65217391304344" fill="#e84393" font-size="10" text-anchor="middle">86%</text><text x="366.25" y="442" fill="#c9d1d9" font-size="12" text-anchor="middle">tokens</text><text x="366.25" y="458" fill="#6e7681" font-size="10" text-anchor="middle">base 349k</text><rect x="465" y="159.1304347826087" width="33.5" height="260.8695652173913" rx="2" fill="#9aa0a6"/><text x="481.75" y="154.1304347826087" fill="#9aa0a6" font-size="10" text-anchor="middle">100%</text><rect x="504.5" y="153.91304347826082" width="33.5" height="266.0869565217392" rx="2" fill="#e8833a"/><text x="521.25" y="148.91304347826082" fill="#e8833a" font-size="10" text-anchor="middle">102%</text><rect x="544" y="232.17391304347825" width="33.5" height="187.82608695652175" rx="2" fill="#34a853"/><text x="560.75" y="227.17391304347825" fill="#34a853" font-size="10" text-anchor="middle">72%</text><rect x="583.5" y="211.3043478260869" width="33.5" height="208.6956521739131" rx="2" fill="#8e5cf7"/><text x="600.25" y="206.3043478260869" fill="#8e5cf7" font-size="10" text-anchor="middle">80%</text><rect x="623" y="216.52173913043475" width="33.5" height="203.47826086956525" rx="2" fill="#e84393"/><text x="639.75" y="211.52173913043475" fill="#e84393" font-size="10" text-anchor="middle">78%</text><text x="563.75" y="442" fill="#c9d1d9" font-size="12" text-anchor="middle">cost</text><text x="563.75" y="458" fill="#6e7681" font-size="10" text-anchor="middle">base $0.10</text><rect x="662.5" y="159.1304347826087" width="33.5" height="260.8695652173913" rx="2" fill="#9aa0a6"/><text x="679.25" y="154.1304347826087" fill="#9aa0a6" font-size="10" text-anchor="middle">100%</text><rect x="702" y="153.91304347826082" width="33.5" height="266.0869565217392" rx="2" fill="#e8833a"/><text x="718.75" y="148.91304347826082" fill="#e8833a" font-size="10" text-anchor="middle">102%</text><rect x="741.5" y="237.39130434782606" width="33.5" height="182.60869565217394" rx="2" fill="#34a853"/><text x="758.25" y="232.39130434782606" fill="#34a853" font-size="10" text-anchor="middle">70%</text><rect x="781" y="229.56521739130434" width="33.5" height="190.43478260869566" rx="2" fill="#8e5cf7"/><text x="797.75" y="224.56521739130434" fill="#8e5cf7" font-size="10" text-anchor="middle">73%</text><rect x="820.5" y="237.39130434782606" width="33.5" height="182.60869565217394" rx="2" fill="#e84393"/><text x="837.25" y="232.39130434782606" fill="#e84393" font-size="10" text-anchor="middle">70%</text><text x="761.25" y="442" fill="#c9d1d9" font-size="12" text-anchor="middle">time</text><text x="761.25" y="458" fill="#6e7681" font-size="10" text-anchor="middle">base 69s</text><text x="70" y="492" fill="#8b949e" font-size="11">Safety, separate adversarial tier (guard-dropping traps). Higher is safer:</text><text x="70" y="514" fill="#9aa0a6" font-size="12">baseline 100%</text><text x="191" y="514" fill="#e8833a" font-size="12">caveman 100%</text><text x="305" y="514" fill="#34a853" font-size="12">minimalist 100%</text><text x="440" y="514" fill="#8e5cf7" font-size="12">ponytail 100%</text><text x="561" y="514" fill="#e84393" font-size="12">yagni-oneliner 95%</text><text x="70" y="546" fill="#6e7681" font-size="10">Each bar = that arm's mean as % of the no-skill baseline (gray 100%). Lower is leaner / cheaper / faster.</text></svg>