<svg xmlns="http://www.w3.org/2000/svg" viewBox="0 0 900 560" font-family="system-ui,Segoe UI,Helvetica,Arial,sans-serif"><rect width="900" height="560" fill="#0d1117"/><text x="450" y="34" fill="#e6edf3" font-size="18" text-anchor="middle">Every metric vs the no-skill baseline</text><text x="450" y="56" fill="#8b949e" font-size="12" text-anchor="middle">Claude Code, Haiku 4.5, 12 LOC tasks, n=4</text><rect x="70" y="66" width="10" height="10" fill="#9aa0a6"/><text x="85" y="75" fill="#c9d1d9" font-size="11">baseline</text><rect x="158.2" y="66" width="10" height="10" fill="#e8833a"/><text x="173.2" y="75" fill="#c9d1d9" font-size="11">caveman</text><rect x="240" y="66" width="10" height="10" fill="#34a853"/><text x="255" y="75" fill="#c9d1d9" font-size="11">minimalist</text><rect x="341" y="66" width="10" height="10" fill="#8e5cf7"/><text x="356" y="75" fill="#c9d1d9" font-size="11">yagni-oneliner</text><rect x="467.6" y="66" width="10" height="10" fill="#e84393"/><text x="482.6" y="75" fill="#c9d1d9" font-size="11">token-efficient</text><line x1="70" y1="420" x2="860" y2="420" stroke="#21262d" stroke-dasharray="none" stroke-width="1"/><text x="62" y="424" fill="#8b949e" font-size="10" text-anchor="end">0%</text><line x1="70" y1="369.6810019697903" x2="860" y2="369.6810019697903" stroke="#21262d" stroke-dasharray="none" stroke-width="1"/><text x="62" y="373.6810019697903" fill="#8b949e" font-size="10" text-anchor="end">25%</text><line x1="70" y1="319.36200393958063" x2="860" y2="319.36200393958063" stroke="#21262d" stroke-dasharray="none" stroke-width="1"/><text x="62" y="323.36200393958063" fill="#8b949e" font-size="10" text-anchor="end">50%</text><line x1="70" y1="269.043005909371" x2="860" y2="269.043005909371" stroke="#21262d" stroke-dasharray="none" stroke-width="1"/><text x="62" y="273.043005909371" fill="#8b949e" font-size="10" text-anchor="end">75%</text><line x1="70" y1="218.72400787916132" x2="860" y2="218.72400787916132" stroke="#21262d" stroke-dasharray="4 4" stroke-width="1"/><text x="62" y="222.72400787916132" fill="#8b949e" font-size="10" text-anchor="end">100%</text><text x="18" y="255" fill="#8b949e" font-size="10" transform="rotate(-90 18 255)" text-anchor="middle">% of baseline (lower is leaner)</text><rect x="70" y="218.72400787916132" width="33.5" height="201.27599212083868" rx="2" fill="#9aa0a6"/><text x="86.75" y="213.72400787916132" fill="#9aa0a6" font-size="10" text-anchor="middle">100%</text><rect x="109.5" y="248.8157907351242" width="33.5" height="171.1842092648758" rx="2" fill="#e8833a"/><text x="126.25" y="243.8157907351242" fill="#e8833a" font-size="10" text-anchor="middle">85%</text><rect x="149" y="300.3055997491966" width="33.5" height="119.69440025080343" rx="2" fill="#34a853"/><text x="165.75" y="295.3055997491966" fill="#34a853" font-size="10" text-anchor="middle">59%</text><rect x="188.5" y="260.30396922871626" width="33.5" height="159.69603077128374" rx="2" fill="#8e5cf7"/><text x="205.25" y="255.30396922871626" fill="#8e5cf7" font-size="10" text-anchor="middle">79%</text><rect x="228" y="194.71267985651846" width="33.5" height="225.28732014348154" rx="2" fill="#e84393"/><text x="244.75" y="189.71267985651846" fill="#e84393" font-size="10" text-anchor="middle">112%</text><text x="168.75" y="442" fill="#c9d1d9" font-size="12" text-anchor="middle">LOC</text><text x="168.75" y="458" fill="#6e7681" font-size="10" text-anchor="middle">base 162</text><rect x="267.5" y="218.72400787916132" width="33.5" height="201.27599212083868" rx="2" fill="#9aa0a6"/><text x="284.25" y="213.72400787916132" fill="#9aa0a6" font-size="10" text-anchor="middle">100%</text><rect x="307" y="274.1661649269222" width="33.5" height="145.8338350730778" rx="2" fill="#e8833a"/><text x="323.75" y="269.1661649269222" fill="#e8833a" font-size="10" text-anchor="middle">72%</text><rect x="346.5" y="267.70359557127915" width="33.5" height="152.29640442872085" rx="2" fill="#34a853"/><text x="363.25" y="262.70359557127915" fill="#34a853" font-size="10" text-anchor="middle">76%</text><rect x="386" y="230.3943944438685" width="33.5" height="189.6056055561315" rx="2" fill="#8e5cf7"/><text x="402.75" y="225.3943944438685" fill="#8e5cf7" font-size="10" text-anchor="middle">94%</text><rect x="425.5" y="176.73312664627588" width="33.5" height="243.26687335372412" rx="2" fill="#e84393"/><text x="442.25" y="171.73312664627588" fill="#e84393" font-size="10" text-anchor="middle">121%</text><text x="366.25" y="442" fill="#c9d1d9" font-size="12" text-anchor="middle">tokens</text><text x="366.25" y="458" fill="#6e7681" font-size="10" text-anchor="middle">base 446k</text><rect x="465" y="218.72400787916132" width="33.5" height="201.27599212083868" rx="2" fill="#9aa0a6"/><text x="481.75" y="213.72400787916132" fill="#9aa0a6" font-size="10" text-anchor="middle">100%</text><rect x="504.5" y="266.58074567778357" width="33.5" height="153.41925432221643" rx="2" fill="#e8833a"/><text x="521.25" y="261.58074567778357" fill="#e8833a" font-size="10" text-anchor="middle">76%</text><rect x="544" y="266.4861626066819" width="33.5" height="153.5138373933181" rx="2" fill="#34a853"/><text x="560.75" y="261.4861626066819" fill="#34a853" font-size="10" text-anchor="middle">76%</text><rect x="583.5" y="179.5805546909147" width="33.5" height="240.4194453090853" rx="2" fill="#8e5cf7"/><text x="600.25" y="174.5805546909147" fill="#8e5cf7" font-size="10" text-anchor="middle">119%</text><rect x="623" y="153.87417383654457" width="33.5" height="266.12582616345543" rx="2" fill="#e84393"/><text x="639.75" y="148.87417383654457" fill="#e84393" font-size="10" text-anchor="middle">132%</text><text x="563.75" y="442" fill="#c9d1d9" font-size="12" text-anchor="middle">cost</text><text x="563.75" y="458" fill="#6e7681" font-size="10" text-anchor="middle">base $0.10</text><rect x="662.5" y="218.72400787916132" width="33.5" height="201.27599212083868" rx="2" fill="#9aa0a6"/><text x="679.25" y="213.72400787916132" fill="#9aa0a6" font-size="10" text-anchor="middle">100%</text><rect x="702" y="259.89777983590614" width="33.5" height="160.10222016409386" rx="2" fill="#e8833a"/><text x="718.75" y="254.89777983590614" fill="#e8833a" font-size="10" text-anchor="middle">80%</text><rect x="741.5" y="259.2653737364511" width="33.5" height="160.73462626354888" rx="2" fill="#34a853"/><text x="758.25" y="254.26537373645112" fill="#34a853" font-size="10" text-anchor="middle">80%</text><rect x="781" y="193.16840822497977" width="33.5" height="226.83159177502023" rx="2" fill="#8e5cf7"/><text x="797.75" y="188.16840822497977" fill="#8e5cf7" font-size="10" text-anchor="middle">113%</text><rect x="820.5" y="133.04347826086956" width="33.5" height="286.95652173913044" rx="2" fill="#e84393"/><text x="837.25" y="128.04347826086956" fill="#e84393" font-size="10" text-anchor="middle">143%</text><text x="761.25" y="442" fill="#c9d1d9" font-size="12" text-anchor="middle">time</text><text x="761.25" y="458" fill="#6e7681" font-size="10" text-anchor="middle">base 40s</text><text x="70" y="546" fill="#6e7681" font-size="10">Each bar = that arm's mean as % of the no-skill baseline (gray 100%). Lower is leaner / cheaper / faster.</text></svg>