<svg xmlns="http://www.w3.org/2000/svg" viewBox="0 0 900 560" font-family="system-ui,Segoe UI,Helvetica,Arial,sans-serif"><rect width="900" height="560" fill="#0d1117"/><text x="450" y="34" fill="#e6edf3" font-size="18" text-anchor="middle">Every metric vs the no-skill baseline</text><text x="450" y="56" fill="#8b949e" font-size="12" text-anchor="middle">Claude Code, Haiku 4.5, 12 LOC tasks, n=4</text><rect x="70" y="66" width="10" height="10" fill="#9aa0a6"/><text x="85" y="75" fill="#c9d1d9" font-size="11">baseline</text><rect x="158.2" y="66" width="10" height="10" fill="#e8833a"/><text x="173.2" y="75" fill="#c9d1d9" font-size="11">minimalist</text><rect x="259.2" y="66" width="10" height="10" fill="#34a853"/><text x="274.2" y="75" fill="#c9d1d9" font-size="11">yagni-oneliner</text><rect x="385.8" y="66" width="10" height="10" fill="#8e5cf7"/><text x="400.8" y="75" fill="#c9d1d9" font-size="11">token-efficient</text><line x1="70" y1="420" x2="860" y2="420" stroke="#21262d" stroke-dasharray="none" stroke-width="1"/><text x="62" y="424" fill="#8b949e" font-size="10" text-anchor="end">0%</text><line x1="70" y1="369.6810019697903" x2="860" y2="369.6810019697903" stroke="#21262d" stroke-dasharray="none" stroke-width="1"/><text x="62" y="373.6810019697903" fill="#8b949e" font-size="10" text-anchor="end">25%</text><line x1="70" y1="319.36200393958063" x2="860" y2="319.36200393958063" stroke="#21262d" stroke-dasharray="none" stroke-width="1"/><text x="62" y="323.36200393958063" fill="#8b949e" font-size="10" text-anchor="end">50%</text><line x1="70" y1="269.043005909371" x2="860" y2="269.043005909371" stroke="#21262d" stroke-dasharray="none" stroke-width="1"/><text x="62" y="273.043005909371" fill="#8b949e" font-size="10" text-anchor="end">75%</text><line x1="70" y1="218.72400787916132" x2="860" y2="218.72400787916132" stroke="#21262d" stroke-dasharray="4 4" stroke-width="1"/><text x="62" y="222.72400787916132" fill="#8b949e" font-size="10" text-anchor="end">100%</text><text x="18" y="255" fill="#8b949e" font-size="10" transform="rotate(-90 18 255)" text-anchor="middle">% of baseline (lower is leaner)</text><rect x="84.75" y="218.72400787916132" width="36" height="201.27599212083868" rx="2" fill="#9aa0a6"/><text x="102.75" y="213.72400787916132" fill="#9aa0a6" font-size="10" text-anchor="middle">100%</text><rect x="126.75" y="300.3055997491966" width="36" height="119.69440025080343" rx="2" fill="#e8833a"/><text x="144.75" y="295.3055997491966" fill="#e8833a" font-size="10" text-anchor="middle">59%</text><rect x="168.75" y="260.30396922871626" width="36" height="159.69603077128374" rx="2" fill="#34a853"/><text x="186.75" y="255.30396922871626" fill="#34a853" font-size="10" text-anchor="middle">79%</text><rect x="210.75" y="194.71267985651846" width="36" height="225.28732014348154" rx="2" fill="#8e5cf7"/><text x="228.75" y="189.71267985651846" fill="#8e5cf7" font-size="10" text-anchor="middle">112%</text><text x="168.75" y="442" fill="#c9d1d9" font-size="12" text-anchor="middle">LOC</text><text x="168.75" y="458" fill="#6e7681" font-size="10" text-anchor="middle">base 162</text><rect x="282.25" y="218.72400787916132" width="36" height="201.27599212083868" rx="2" fill="#9aa0a6"/><text x="300.25" y="213.72400787916132" fill="#9aa0a6" font-size="10" text-anchor="middle">100%</text><rect x="324.25" y="267.70359557127915" width="36" height="152.29640442872085" rx="2" fill="#e8833a"/><text x="342.25" y="262.70359557127915" fill="#e8833a" font-size="10" text-anchor="middle">76%</text><rect x="366.25" y="230.3943944438685" width="36" height="189.6056055561315" rx="2" fill="#34a853"/><text x="384.25" y="225.3943944438685" fill="#34a853" font-size="10" text-anchor="middle">94%</text><rect x="408.25" y="176.73312664627588" width="36" height="243.26687335372412" rx="2" fill="#8e5cf7"/><text x="426.25" y="171.73312664627588" fill="#8e5cf7" font-size="10" text-anchor="middle">121%</text><text x="366.25" y="442" fill="#c9d1d9" font-size="12" text-anchor="middle">tokens</text><text x="366.25" y="458" fill="#6e7681" font-size="10" text-anchor="middle">base 446k</text><rect x="479.75" y="218.72400787916132" width="36" height="201.27599212083868" rx="2" fill="#9aa0a6"/><text x="497.75" y="213.72400787916132" fill="#9aa0a6" font-size="10" text-anchor="middle">100%</text><rect x="521.75" y="266.4861626066819" width="36" height="153.5138373933181" rx="2" fill="#e8833a"/><text x="539.75" y="261.4861626066819" fill="#e8833a" font-size="10" text-anchor="middle">76%</text><rect x="563.75" y="179.5805546909147" width="36" height="240.4194453090853" rx="2" fill="#34a853"/><text x="581.75" y="174.5805546909147" fill="#34a853" font-size="10" text-anchor="middle">119%</text><rect x="605.75" y="153.87417383654457" width="36" height="266.12582616345543" rx="2" fill="#8e5cf7"/><text x="623.75" y="148.87417383654457" fill="#8e5cf7" font-size="10" text-anchor="middle">132%</text><text x="563.75" y="442" fill="#c9d1d9" font-size="12" text-anchor="middle">cost</text><text x="563.75" y="458" fill="#6e7681" font-size="10" text-anchor="middle">base $0.10</text><rect x="677.25" y="218.72400787916132" width="36" height="201.27599212083868" rx="2" fill="#9aa0a6"/><text x="695.25" y="213.72400787916132" fill="#9aa0a6" font-size="10" text-anchor="middle">100%</text><rect x="719.25" y="259.2653737364511" width="36" height="160.73462626354888" rx="2" fill="#e8833a"/><text x="737.25" y="254.26537373645112" fill="#e8833a" font-size="10" text-anchor="middle">80%</text><rect x="761.25" y="193.16840822497977" width="36" height="226.83159177502023" rx="2" fill="#34a853"/><text x="779.25" y="188.16840822497977" fill="#34a853" font-size="10" text-anchor="middle">113%</text><rect x="803.25" y="133.04347826086956" width="36" height="286.95652173913044" rx="2" fill="#8e5cf7"/><text x="821.25" y="128.04347826086956" fill="#8e5cf7" font-size="10" text-anchor="middle">143%</text><text x="761.25" y="442" fill="#c9d1d9" font-size="12" text-anchor="middle">time</text><text x="761.25" y="458" fill="#6e7681" font-size="10" text-anchor="middle">base 40s</text><text x="70" y="546" fill="#6e7681" font-size="10">Each bar = that arm's mean as % of the no-skill baseline (gray 100%). Lower is leaner / cheaper / faster.</text></svg>